# xmcd
#
# Track frame offsets: 
#        182
#        13922
#        29057
#        42590
#        57340
#        71732
#        85800
#        100052
#        113400
#        128870
#        142190
#        155175
#        167887
#        180137
#        193450
#        207770
#        221222
#        233017
#        245960
#        256292
#        270020
#        285182
#        299715
#
# Disc length: 4172 seconds
#
# Revision: 1
# Processed by: cddbd v1.5.2PL0 Copyright (c) Steve Scherf et al.
# Submitted via: ExactAudioCopy v0.99pb4
#
DISCID=65104a17
DTITLE=Bessie Smith - 1928-1929
DYEAR=1996
DGENRE=Blues
TTITLE0=Empty Bed Blues - Part 1
TTITLE1=Empty Bed Blues - Part 2
TTITLE2=Put It Right Here (Or Keep It Out There)
TTITLE3=Yes Indeed He Do
TTITLE4=Devil's Gonna Get You
TTITLE5=You Ought To Be Ashamed
TTITLE6=Washwoman's Blues
TTITLE7=Slow And Easy Man
TTITLE8=Poor Man's Blues
TTITLE9=Please Help Me Get Him Off My Mind
TTITLE10=Me And My Gin
TTITLE11=I'm Wild About That Thing
TTITLE12=You've Got To Give Me Some
TTITLE13=Kitchen Man
TTITLE14=I've Got What It Takes (But It Breaks My Heart To Give It Awa
TTITLE14=y)
TTITLE15=Nobody Knows You When You're Down And Out
TTITLE16=St. Louis Blues - Part 1
TTITLE17=St. Louis Blues - Part 2
TTITLE18=St. Louis Blues - Part 3
TTITLE19=St. Louis Blues - Part 4
TTITLE20=Take It Right Back ('Cause I Don't Want It Here)
TTITLE21=He's Got Me Goin'
TTITLE22=It Makes My Love Come Down
EXTD=
EXTT0=
EXTT1=
EXTT2=
EXTT3=
EXTT4=
EXTT5=
EXTT6=
EXTT7=
EXTT8=
EXTT9=
EXTT10=
EXTT11=
EXTT12=
EXTT13=
EXTT14=
EXTT15=
EXTT16=
EXTT17=
EXTT18=
EXTT19=
EXTT20=
EXTT21=
EXTT22=
PLAYORDER=
